<?xml version="1.0" encoding="utf-8"?>
<!-- Generator: Adobe Illustrator 23.0.3, SVG Export Plug-In . SVG Version: 6.00 Build 0)  -->
<svg version="1.1" id="Layer_1" xmlns="http://www.w3.org/2000/svg" xmlns:xlink="http://www.w3.org/1999/xlink" x="0px" y="0px"
	 viewBox="0 0 500 500" style="enable-background:new 0 0 500 500;" xml:space="preserve">
<style type="text/css">
	.st0{fill:none;stroke:#000000;stroke-width:30;stroke-miterlimit:10;}
	.st1{fill:none;stroke:#000000;stroke-width:24;stroke-miterlimit:10;}
	.st2{fill-rule:evenodd;clip-rule:evenodd;fill:none;stroke:#000000;stroke-width:24;stroke-miterlimit:10;}
</style>
<path class="st0" d="M483,250c0,56.23-19.96,107.81-53.2,148.01c-42.65,51.6-107.14,84.49-179.3,84.49C122.1,482.5,18,378.4,18,250
	S122.1,17.5,250.5,17.5S483,121.6,483,250z"/>
<path class="st1" d="M74.63,409.81C77,386,87,364,100,343c10-15,20-28,34-40c33-28,74-44,116.36-43"/>
<g>
	<path class="st1" d="M430.42,383.53"/>
</g>
<circle class="st2" cx="250" cy="160" r="100"/>
<path class="st1" d="M425.45,410.29C419,364,393,324,356,295c-2-1-5-3-7-5c-31-20-64-30-99.36-30"/>
</svg>
